<svg xmlns="http://www.w3.org/2000/svg" width="43.52mm" height="41.51mm" viewBox="0 0 123.36 117.65"><path d="M444.65,258.89l-1.72,5.27-11.95,0a4.5,4.5,0,0,0-4.28,3.13l-4.86,15.13a4.16,4.16,0,0,0-.21,1.6,3.73,3.73,0,0,0-.47,0,4.38,4.38,0,0,0-.21-1.71L416,267.26a4.54,4.54,0,0,0-4.3-3.11l-12,.05L398,258.89a4.49,4.49,0,0,1,1.63-5l19-13.83a4.53,4.53,0,0,1,5.3,0l19,13.83a4.5,4.5,0,0,1,1.64,5" transform="translate(-359.7 -239.16)" fill="#006ab4"/><path d="M482.83,286.6,475.57,309a4.5,4.5,0,0,1-4.3,3.13h-5.48l-3.72-11.45a4.54,4.54,0,0,0-4.3-3.13H441.89A4.56,4.56,0,0,0,440,298a2.88,2.88,0,0,0-.09-.4,4.46,4.46,0,0,0,1.81-.77l12.82-9.38a4.52,4.52,0,0,0,1.62-5.06L452.39,271l4.47-3.25a4.49,4.49,0,0,1,5.31,0l19,13.83a4.47,4.47,0,0,1,1.63,5" transform="translate(-359.7 -239.16)" fill="#006ab4"/><path d="M402.8,297.51a3.06,3.06,0,0,0-.1.41,4.5,4.5,0,0,0-1.83-.41H385a4.51,4.51,0,0,0-4.29,3.13L377,312.09h-5.48a4.51,4.51,0,0,1-4.3-3.13l-7.26-22.36a4.49,4.49,0,0,1,1.63-5l19-13.83a4.49,4.49,0,0,1,5.31,0l4.46,3.24-3.69,11.5a4.5,4.5,0,0,0,1.65,5l12.89,9.3a4.21,4.21,0,0,0,1.59.71" transform="translate(-359.7 -239.16)" fill="#006ab4"/><path d="M415.56,348.47l-1.65,5.14a4.49,4.49,0,0,1-4.28,3.13l-23.52.07a4.5,4.5,0,0,1-4.31-3.1l-7.34-22.35a4.53,4.53,0,0,1,1.63-5.05l4.44-3.25,9.74,7.08a4.53,4.53,0,0,0,5.32,0l12.85-9.33a4.64,4.64,0,0,0,1.36-1.6.94.94,0,0,0,.23.16.28.28,0,0,0,.09.06l.15.11a4.55,4.55,0,0,0-1.09,1.77l-4.9,15.11a4.49,4.49,0,0,0,1.63,5Z" transform="translate(-359.7 -239.16)" fill="#006ab4"/><path d="M468.24,331.21l-7.2,22.4a4.5,4.5,0,0,1-4.28,3.13l-23.52.08a4.52,4.52,0,0,1-4.31-3.11l-1.71-5.19,9.7-7.06a4.49,4.49,0,0,0,1.64-5l-4.91-15.11a4.44,4.44,0,0,0-1.12-1.81l.43-.32a4.52,4.52,0,0,0,1.36,1.63l12.85,9.33a4.53,4.53,0,0,0,5.32,0l9.77-7.09,4.32,3.12a4.49,4.49,0,0,1,1.66,5" transform="translate(-359.7 -239.16)" fill="#006ab4"/><path d="M419.42,291.88l-8.09,5.87a3.12,3.12,0,0,0-1.13,3.5l3.08,9.5a3.13,3.13,0,0,0,3,2.16h10a3.12,3.12,0,0,0,3-2.16l3.09-9.5a3.12,3.12,0,0,0-1.14-3.5l-8.08-5.87a3.11,3.11,0,0,0-3.67,0" transform="translate(-359.7 -239.16)" fill="#ffd64d"/></svg>