<?xml version="1.0" encoding="utf-8"?>
<!-- Generator: Adobe Illustrator 25.2.2, SVG Export Plug-In . SVG Version: 6.00 Build 0)  -->
<svg version="1.1" id="Layer_1" xmlns="http://www.w3.org/2000/svg" xmlns:xlink="http://www.w3.org/1999/xlink" x="0px" y="0px"
	 viewBox="0 0 24 24" style="enable-background:new 0 0 24 24;" xml:space="preserve">
<path d="M17.7,8.8c-3.4,0-6.2,2.2-6.2,4.9s2.8,4.9,6.2,4.9c0.8,0,1.5-0.1,2.2-0.3H20l0.1,0.1c1.2,1,2.6,1.4,3.4,1.5
	c-1.1-1.3-1.4-2.1-1.4-2.6v-0.1l0.1-0.1c1.1-0.9,1.7-2.1,1.7-3.4C24,11,21.2,8.8,17.7,8.8z"/>
<path d="M10.8,13.7c0-2.4,1.8-4.4,4.4-5.2c-0.9-2.5-3.9-4.4-7.4-4.4C3.5,4.1,0,6.9,0,10.3c0,1.7,0.8,3.2,2.1,4.3
	c0,0.5-0.3,1.7-2.1,3.5c0,0,2.8,0,5-1.9c0.9,0.2,1.8,0.4,2.7,0.4c1.3,0,2.5-0.3,3.6-0.8C11,15.2,10.8,14.5,10.8,13.7z"/>
</svg>
